<?xml version="1.0" encoding="UTF-8"?>
<!DOCTYPE svg PUBLIC "-//W3C//DTD SVG 1.1//EN" "http://www.w3.org/Graphics/SVG/1.1/DTD/svg11.dtd">
<!-- Creator: CorelDRAW 2017 -->
<svg xmlns="http://www.w3.org/2000/svg" xml:space="preserve" width="190mm" height="112mm" version="1.1" style="shape-rendering:geometricPrecision; text-rendering:geometricPrecision; image-rendering:optimizeQuality; fill-rule:evenodd; clip-rule:evenodd"
viewBox="0 0 19000 11200"
 xmlns:xlink="http://www.w3.org/1999/xlink">
 <defs>
  <style type="text/css">
   <![CDATA[
    .fil2 {fill:#005ABF}
    .fil0 {fill:#FDFEFE}
    .fil1 {fill:gold}
   ]]>
  </style>
 </defs>
 <g id="Слой_x0020_1">
  <metadata id="CorelCorpID_0Corel-Layer"/>
  <g id="_1725116674640">
   <g>
    <path class="fil0" d="M821.67 3747.92c336.54,-502.57 436.94,-558.8 523.42,-1416.86 28.79,-285.62 31.92,-632.31 66.66,-885.84l44.92 -942.86c118.62,0 236.27,-0.18 354.84,-2.06 149.78,-2.38 280.16,-34.9 280.16,107.9l0 3033.88c0,166.7 -273.99,105.93 -564.44,105.84 -235.19,-0.07 -470.37,0 -705.56,0zm-776.11 0l0 1128.89 458.61 0c3.47,-155.94 38.26,-190.54 35.85,-387.49 -1.99,-162.8 -50.35,-353.35 105.26,-353.35l1905 0c0,281.02 35.28,439.82 35.28,740.84l458.61 0 0 -1128.89 -388.05 0 0 -3668.89 -1728.62 0c0,775.04 -51.92,2834.82 -492.65,3458.46 -101.1,143.06 -152.07,210.43 -389.29,210.43z"/>
    <path class="fil0" d="M5443.06 3747.92c-92.23,0 -141.11,2.77 -141.11,-105.84l0 -1446.38c510.24,0 1040.71,-20.53 1016.26,808.08 -18.5,627.19 -222.59,744.14 -875.15,744.14zm105.83 -1975.56l-246.94 0 0 -1270c362.17,0 787.32,-34.92 893.8,270.36 87.82,251.79 77.64,680.11 -91.81,849.13 -107.71,107.43 -346,150.51 -555.05,150.51zm-811.39 2363.61l1199.45 0c544.89,0 917.22,-449.05 917.22,-987.77 0,-394.59 -11.85,-1115.25 -599.72,-1164.17 55.66,-75.98 493.89,-193.21 493.89,-705.56l0 -388.05c0,-469.06 -435.77,-811.39 -917.23,-811.39l-1093.61 0 0 4056.94z"/>
    <path class="fil0" d="M11616.67 6146.81c0,-562.13 -23.57,-917.23 952.5,-917.23l0 1587.5c-484.96,0 -952.5,-97.47 -952.5,-670.27zm-564.44 -282.23c0,1039.45 427.65,1048.02 564.44,1234.72l-611.44 1328.84c-70.41,138.91 -164.57,318.48 -199.95,470.33l635 0 633.15 -1518.79c79.05,-208.36 -4.86,-174.54 495.74,-174.54l0 1693.33 599.72 0 0 -4056.94c-822.83,0 -2116.66,-174.61 -2116.66,1023.05z"/>
    <path class="fil0" d="M7841.95 8475.14l0 423.33c162.4,13.51 69.55,17.23 218.18,7.07 702.62,-48.01 852.77,-616.57 935.99,-1287.06 44.81,-361.01 80.32,-778.38 79.45,-1155.28l71.66 -1198.34 705.55 0 0 3633.61 599.72 0 0 -4056.94 -1834.44 0c0,714.79 -70.77,1378.47 -105.77,2081.45 -14.33,288 -63.7,697.96 -114.8,978.81 -22.17,121.81 -79.88,309.29 -150.48,413.97 -84.59,125.42 -212.71,159.38 -405.06,159.38z"/>
    <path class="fil0" d="M10946.39 1031.53c110.09,80.66 51.53,-1.73 115.53,378.36 21.1,125.33 65.04,317.42 86.46,442.7 27.86,162.9 52.39,279.49 75.5,418.39 25.78,154.97 72.02,307.21 75.29,453.88l-635 0c8.94,-401.19 282.22,-1284.16 282.22,-1693.33zm-1128.89 3104.44l564.45 0 154.14 -798.35c49.58,-280 -74.25,-224.7 763.08,-224.7 124.5,0 100.38,84.13 118.18,199.32l106.77 598.78c41.81,271.14 -42.14,224.95 586.44,224.95 0,-202.61 -820.69,-3945.42 -846.67,-4056.94l-564.44 0 -881.95 4056.94z"/>
    <path class="fil0" d="M6607.23 8792.64c0,209.94 -231.19,282.22 -423.34,282.22 -254.3,0 -246.94,-202.95 -246.94,423.33 760.37,0 1021.17,70.62 1190.65,-784.9 223.96,-1130.48 534.58,-2797.29 784.9,-3871.76l-564.44 0c-102.18,438.6 -173.42,942.91 -251.55,1406.5 -39.27,233.03 -76.94,461.56 -116.5,730.17 -37.21,252.63 -90.56,497.49 -90.56,756.1 -53.39,-84.13 -464.5,-2461.99 -516.27,-2729.28 -35.25,-181.95 89.06,-163.49 -612.62,-163.49 49.61,103.39 86.44,334.65 119.61,480.1 138.2,605.95 727.06,3086.24 727.06,3471.01z"/>
    <path class="fil0" d="M16379.17 8404.58c0,-1612.25 -104.67,-1507.54 287.81,-1454.42 395.14,53.49 629.41,120.95 629.41,784.14 0,680.79 -253.87,703.31 -593.55,748.28 -99.54,13.18 -323.67,96.63 -323.67,-78zm-564.45 493.89c972.39,0 2046.12,173.94 2046.12,-1199.44 0,-298.2 -69.18,-647.19 -271.76,-857.14 -332.9,-345 -738.67,-307.03 -1209.91,-307.03l0 -1693.33 -564.45 0 0 4056.94z"/>
    <path class="fil0" d="M4278.89 6605.42l-141.11 0 0 -1270c0,-178.3 292.24,-101.84 560.42,-66.53 393.63,51.82 321.53,437.92 321.53,842.64 0,424.36 -320,493.89 -740.84,493.89zm-705.55 2293.05l564.44 0c0,-2209.57 -151.24,-1909.45 494.74,-1904.15 541.22,4.45 951.65,-312.5 951.65,-918.07l0 -282.22c0,-531.86 -342.48,-952.5 -881.94,-952.5l-1128.89 0 0 4056.94z"/>
    <path class="fil0" d="M7312.78 1560.7c0,424 358.55,776.11 846.67,776.11l705.55 -35.28 0 1834.44 599.73 0 0 -4056.94 -599.73 0 0 1834.44c-165.66,13.79 -722.65,171.27 -925.88,-97.16 -168.98,-223.2 -97.17,-1316.87 -97.17,-1737.28l-529.17 0 0 1481.67z"/>
    <polygon class="fil0" points="12075.28,502.36 12816.11,502.36 12816.11,4135.97 13415.84,4135.97 13415.84,502.36 14121.39,502.36 14121.39,79.03 12075.28,79.03 "/>
    <polygon class="fil0" points="13451.11,5264.86 14191.95,5264.86 14191.95,8898.47 14791.67,8898.47 14791.67,5264.86 15497.22,5264.86 15497.22,4841.53 13451.11,4841.53 "/>
    <path class="fil0" d="M14928.24 3218.75c-0.59,-243.93 111.08,-193.92 355.04,-249.72 117.94,-26.98 380.56,-89.59 465.41,-135.49 -390.65,23.31 -663.71,161.29 -1071.24,106.97 24.69,-54.97 100.71,-75.3 108.75,-186.35 -83.31,-50.43 -88.2,-24.46 -161.73,-93.56 72.58,-233.89 266.01,-222.13 484.7,-286.93 0,-208.11 70.92,-475.88 109.13,-668.56 37,-186.56 102.54,-463.43 102.54,-673.58 93.55,68.55 80.61,150.38 101.45,286.6 19.8,129.43 34.12,199.37 60.27,327.79l120.5 644.23 493.89 -91.61c-42.3,-92.23 -88.06,-380.98 -119.68,-518.17 -43.34,-188.03 -71.26,-337.85 -112.38,-522.62 -84.11,-377.93 -142.79,-719.16 -226.55,-1078.72l-564.45 0 -881.94 4056.94 564.44 0c32.7,-140.33 62.49,-278.59 90.95,-438.22 27.46,-154.03 77.29,-355.02 80.9,-479z"/>
    <polygon class="fil0" points="3502.78,4135.97 4102.5,4135.97 4102.5,79.03 3502.78,79.03 "/>
    <path class="fil0" d="M18425.28 8016.53l211.67 0c0,-555.74 54.34,-1039.6 69.44,-1588.61l70.56 -1199.44c-0.47,-194.26 32.97,-233.49 36.39,-386.95l-564.45 0c0,549.27 53.65,1037.7 69.42,1588.64l71.1 1198.89c-1.85,195.64 23.91,243.73 35.87,387.47z"/>
    <path class="fil0" d="M14756.39 9850.97l493.89 0 0 846.67 -635 0c62.46,-118.04 97.26,-215.1 105.31,-388.58 9.31,-200.76 35.8,-273.53 35.8,-458.09zm-176.39 141.11c0,426.93 -7.59,699.44 -282.22,705.56l0 423.33 176.39 0 0 -282.22 952.5 0c0,286.92 -21.5,277.81 176.39,282.22l0 -423.33 -176.39 0 0 -987.78 -846.67 0 0 282.22z"/>
    <path class="fil0" d="M16238.06 10697.64c-375.43,0 -402.96,-388.06 35.28,-388.06l282.22 0c0,189.68 -24.38,388.06 -317.5,388.06zm-423.34 -881.95c71.49,306.86 55.07,35.28 458.62,35.28 208.13,0 282.22,98.18 282.22,317.5 -323.9,0 -776.11,-76.68 -776.11,352.78 0,300.89 274.55,317.5 493.89,317.5 219.09,0 262.57,-225.01 282.22,0l176.39 0c0,-809.58 112.24,-1128.89 -529.17,-1128.89 -194.8,0 -235.95,70.4 -388.06,105.83z"/>
    <path class="fil0" d="M12181.11 9850.97c233.58,0 368.47,117.32 388.06,352.78l-740.83 0c5.4,-242.72 169.65,-352.78 352.77,-352.78zm-529.16 317.5c0,909.38 864.14,710.78 1023.05,493.89 -138.68,-246.86 -339.39,247.9 -716.75,-59.36 -92.27,-75.12 -126.5,-104.7 -129.91,-258.14l917.22 0c0,-936.06 -1093.61,-713.53 -1093.61,-176.39z"/>
    <polygon class="fil0" points="17120,10838.75 17296.39,10838.75 17296.39,9850.97 17966.67,9850.97 17966.67,10838.75 18143.06,10838.75 18143.06,9709.86 17120,9709.86 "/>
    <polygon class="fil0" points="13063.06,10838.75 13239.45,10838.75 13239.45,10344.86 13909.73,10344.86 13909.73,10838.75 14086.11,10838.75 14086.11,9709.86 13909.73,9709.86 13909.73,10203.75 13239.45,10203.75 13239.45,9709.86 13063.06,9709.86 "/>
    <path class="fil0" d="M15814.72 3449.37c17.58,92.14 37.02,172.26 55.73,278.7 91.45,520.12 -45.24,407.9 614.55,407.9 0,-293.58 -134,-527.89 -141.11,-797.7l-529.17 111.1z"/>
    <path class="fil0" d="M9535.28 10168.47c0,501.41 168.87,670.28 670.28,670.28 167.17,0 316.52,-111.17 352.78,-246.95 -329.73,-76.82 -132.06,105.84 -423.34,105.84 -575.68,0 -575.68,-846.67 0,-846.67 177.13,0 204.7,100.85 317.5,176.39 47.02,-42.6 44.73,-38.22 105.84,-70.56 -252.13,-476.48 -1023.06,-214.97 -1023.06,211.67z"/>
    <polygon class="fil0" points="18248.89,8898.47 18813.34,8898.47 18813.34,8334.03 18248.89,8334.03 "/>
    <path class="fil0" d="M10593.61 9850.97l423.34 0 0 987.78 176.39 0 0 -987.78c425.32,0 408.8,33.53 423.33,-141.11l-1023.06 0 0 141.11z"/>
   </g>
   <path class="fil1" d="M15073.89 3112.92l10.53 10.51c-0.7,-0.68 -14.04,-7.01 -10.53,-10.51zm674.8 -279.38c-84.85,45.9 -347.47,108.51 -465.41,135.49 -243.96,55.8 -355.63,5.79 -355.04,249.72 119.64,80.68 111.18,117.46 152.48,215.17l63.73 137.61c316.66,0 412.28,-50.49 670.27,-122.16l529.17 -111.1c870.31,-214.42 1416.57,-249.38 2081.51,-401.62 204.2,-46.75 236.87,-324.79 493.77,-352.9 -59.93,-89.5 -73.59,-157.46 -202.74,-168.34 -51.55,-4.35 -160.43,27.23 -326.43,27.23l48.66 -70.56 -48.66 -57.41c-200.94,65.09 -451.62,81.39 -674.97,120.2l-1966.34 398.67z"/>
   <path class="fil2" d="M16096.95 2198.54l-493.89 91.61c-181.82,22.77 -330.88,66.87 -493.89,83.52 -218.69,64.8 -412.12,53.04 -484.7,286.93 73.53,69.1 78.42,43.13 161.73,93.56 -8.04,111.05 -84.06,131.38 -108.75,186.35 407.53,54.32 680.59,-83.66 1071.24,-106.97l1966.34 -398.67c223.35,-38.81 474.03,-55.11 674.97,-120.2l48.66 57.41c110.56,-2.89 164.56,-29.86 288.72,-152.78 55.39,-54.83 -27.04,-94.16 227.07,-94.16 -13.57,-162.99 -15.5,-113.54 -190.89,-161.89 -9.2,-2.53 -18.29,-5.26 -27.43,-7.85l-240.29 -41.93c-19.94,-56.35 -23.14,25.57 11.37,-58.03l23.9 -47.8c-376.52,0 -893.55,106.24 -1244.41,166.7 -215.26,37.09 -411.73,74.72 -600.23,105.33 -196.71,31.93 -413.48,71.07 -589.52,118.87z"/>
  </g>
 </g>
</svg>
